HIERARCHY
ROOT Hips
{
  OFFSET 267.745 86.9975 -272.335
  CHANNELS 6 Xposition Yposition Zposition Zrotation Xrotation Yrotation
  JOINT LeftUpLeg
  {
    OFFSET 8.64259 1.95398 -2.38835
    CHANNELS 3 Zrotation Xrotation Yrotation
    JOINT LeftLeg
    {
      OFFSET 43.7702 0 0
      CHANNELS 3 Zrotation Xrotation Yrotation
      JOINT LeftFoot
      {
        OFFSET 40.6238 0 0
        CHANNELS 3 Zrotation Xrotation Yrotation
        JOINT LeftToeBase
        {
          OFFSET 12.7242 0 0
          CHANNELS 3 Zrotation Xrotation Yrotation
          End Site
          {
            OFFSET 0 0 0
          }
        }
      }
    }
  }
  JOINT RightUpLeg
  {
    OFFSET -8.2249 1.95398 -2.59336
    CHANNELS 3 Zrotation Xrotation Yrotation
    JOINT RightLeg
    {
      OFFSET 43.5653 0 0
      CHANNELS 3 Zrotation Xrotation Yrotation
      JOINT RightFoot
      {
        OFFSET 40.6238 0 0
        CHANNELS 3 Zrotation Xrotation Yrotation
        JOINT RightToeBase
        {
          OFFSET 12.7242 0 0
          CHANNELS 3 Zrotation Xrotation Yrotation
          End Site
          {
            OFFSET 0 0 0
          }
        }
      }
    }
  }
  JOINT Spine
  {
    OFFSET 0.165834 0.87714 6.61349
    CHANNELS 3 Zrotation Xrotation Yrotation
    JOINT Spine1
    {
      OFFSET 7.38963 1.71661e-005 0
      CHANNELS 3 Zrotation Xrotation Yrotation
      JOINT Spine2
      {
        OFFSET 11.9445 1.14441e-005 0
        CHANNELS 3 Zrotation Xrotation Yrotation
        JOINT Spine3
        {
          OFFSET 14.7254 4.19617e-005 0
          CHANNELS 3 Zrotation Xrotation Yrotation
          JOINT Spine4
          {
            OFFSET 10.9679 0 0
            CHANNELS 3 Zrotation Xrotation Yrotation
            JOINT RightShoulder
            {
              OFFSET 2.46616 -1.6653 3.69651
              CHANNELS 3 Zrotation Xrotation Yrotation
              JOINT RightArm
              {
                OFFSET 13.0012 0 0
                CHANNELS 3 Zrotation Xrotation Yrotation
                JOINT RightForeArm
                {
                  OFFSET 28.7848 1.52588e-005 0
                  CHANNELS 3 Zrotation Xrotation Yrotation
                  JOINT RightHand
                  {
                    OFFSET 26.5688 1.52588e-005 0
                    CHANNELS 3 Zrotation Xrotation Yrotation
                    End Site
                    {
                      OFFSET 0 0 0
                    }
                  }
                }
              }
            }
            JOINT LeftShoulder
            {
              OFFSET 2.38034 -1.29275 -3.7523
              CHANNELS 3 Zrotation Xrotation Yrotation
              JOINT LeftArm
              {
                OFFSET 16.3182 6.10352e-005 0
                CHANNELS 3 Zrotation Xrotation Yrotation
                JOINT LeftForeArm
                {
                  OFFSET 27.0901 0 0
                  CHANNELS 3 Zrotation Xrotation Yrotation
                  JOINT LeftHand
                  {
                    OFFSET 24.5451 1.52588e-005 0
                    CHANNELS 3 Zrotation Xrotation Yrotation
                    End Site
                    {
                      OFFSET 0 0 0
                    }
                  }
                }
              }
            }
            JOINT Neck
            {
              OFFSET 5.0226 -0.0266342 0
              CHANNELS 3 Zrotation Xrotation Yrotation
              JOINT Head
              {
                OFFSET 6.69364 2.86102e-005 0
                CHANNELS 3 Zrotation Xrotation Yrotation
                End Site
                {
                  OFFSET 0 0 0
                }
              }
            }
          }
        }
      }
    }
  }
}
MOTION
Frames:	18
Frame Time:	0.0416667
-104.126 81.937 43.2162 104.059 -87.5408 108.806 -169.549 57.7315 95.8455 -100.126 18.2917 2.10189 57.7558 4.17461 17.4438 42.8987 -1.60404 -3.51975 165.948 35.4367 69.9646 -58.3087 -17.466 3.50958 52.9919 8.9704 12.7259 64.8645 -8.77335 0.918985 0.295028 11.9704 -92.0643 2.91117 -0.223541 -4.03654 -8.76598 -0.400838 -4.02284 -31.2529 0.998976 -3.91755 -11.2402 0.998978 -3.91756 98.3525 -50.901 -88.0507 -0.973462 16.4396 -44.2881 2.08166 -8.28227 -9.24183 -15.7848 -0.506495 -1.49289 -85.9733 -47.8043 84.2052 -22.2578 -10.5658 16.2136 -1.79938 48.8579 -0.00538233 1.67284 -0.133019 -5.57258 10.0184 -2.29087 -13.3568 3.67772 2.4501 23.7315 
-109.374 83.9499 42.8062 53.2988 -86.9898 58.655 -157.317 52.0225 77.7517 -83.6362 25.1523 -1.9353 55.4296 1.11147 16.9306 45.7007 -2.16511 -8.76423 161.107 37.0538 74.1702 -56.1812 -21.7137 7.08691 51.2349 9.51137 10.1747 62.9005 -7.97131 2.18114 0.47972 11.8997 -92.2238 3.05574 0.0799145 -4.34703 -8.62245 -0.111294 -4.34635 -31.1037 1.38157 -4.12283 -11.0911 1.38157 -4.12282 96.8086 -47.6071 -90.771 4.62102 13.6574 -50.0046 2.70632 -2.18277 -14.1936 -14.2937 -0.258895 -3.19897 -87.2159 -49.019 82.49 -28.508 -6.34503 8.66798 -3.53082 55.8715 -0.00546917 1.31004 -0.188289 -7.39346 10.4313 -2.74794 -14.5921 3.70101 2.39088 24.3748 
-114.062 85.4609 42.7435 -13.3836 -85.762 -8.57731 -158.019 44.6717 72.4599 -60.9768 23.1381 -7.9358 53.8283 -1.87418 12.5235 43.5582 -1.79046 -10.1242 159.045 41.4296 76.5954 -56.4927 -21.2828 7.03027 42.5721 15.0167 22.5015 45.1123 -3.67337 13.6458 0.792774 11.7245 -92.0289 3.42079 0.77591 -3.96579 -8.25608 0.600766 -3.99604 -30.7523 1.9312 -3.55018 -10.7396 1.93121 -3.55019 96.7082 -45.6211 -91.1612 1.72488 5.14299 -54.0052 3.43329 -2.48036 -18.9132 -9.56195 0.0213085 -5.64892 -87.7037 -49.8977 81.9022 -31.9536 0.637986 5.29578 -6.37669 51.4254 -0.00427551 3.61172 -0.178125 -6.1355 7.99121 -2.29417 -12.2119 6.23488 2.31331 21.6449 
-118.829 86.5087 43.6231 -53.5032 -83.6739 -46.0619 -165.736 38.8251 75.4713 -46.5778 19.9984 -8.59416 50.5461 -5.28704 11.5232 40.6541 -1.28399 -8.31811 162.306 40.7211 79.1368 -56.3743 -19.1558 5.28428 39.1909 16.1259 23.896 44.2456 -3.80223 5.35606 1.17946 11.6615 -92.0197 3.55974 1.54975 -3.94834 -8.1165 1.37463 -4.01258 -30.6229 2.66414 -3.30114 -10.6103 2.66415 -3.30113 96.203 -44.5362 -92.1302 2.7487 -2.67806 -55.9506 -5.66778 -14.9309 -28.3986 -2.35638 0.00787957 -7.62583 -87.8435 -50.4123 81.7827 -33.2359 4.07559 2.31248 -7.33171 44.1288 -0.00332076 7.37886 -0.210264 -5.75715 4.54162 -1.32481 -10.009 8.09517 2.69463 20.3239 
-124.049 86.4472 44.4656 -81.2396 -82.8695 -69.4447 -171.746 33.2229 78.913 -46.22 21.4304 -4.83336 58.3294 3.44939 21.0271 19.902 3.52827 -12.4857 168.582 37.0582 80.4185 -55.7724 -12.4623 2.61749 44.9089 12.6596 15.5655 47.6255 -4.97482 -3.73428 1.2965 11.678 -92.0753 3.53031 1.76192 -4.05582 -8.146 1.58187 -4.12928 -30.6537 2.89879 -3.33997 -10.641 2.89879 -3.33998 95.2755 -45.4537 -93.5382 4.02586 -11.6335 -55.45 -18.4127 -20.3754 -40.7507 5.24581 -0.261774 -9.65973 -87.6363 -51.4569 82.2714 -32.4242 3.29562 -1.34979 -6.61511 43.5352 -0.00313327 11.8223 -0.256134 -5.69986 4.07203 0.136825 -9.9528 6.70749 3.78217 19.9305 
-129.85 84.8927 44.8355 -86.1336 -83.4411 -70.833 -175.392 32.5839 82.5712 -51.0666 20.4675 -0.702481 63.9036 14.1518 32.0944 28.7085 1.23159 -10.1378 172.95 33.8449 81.3262 -50.2957 -6.58294 0.706335 50.3073 10.0505 16.1931 50.3147 -5.6035 -2.52275 1.0024 11.426 -91.9049 4.02792 1.23468 -3.73821 -7.64792 1.06908 -3.78883 -30.1544 2.30057 -3.19522 -10.1418 2.30057 -3.19522 95.2648 -49.1246 -93.0362 0.690567 -21.9625 -55.6214 -21.4816 -13.7771 -48.6159 5.32442 -0.282625 -9.98503 -87.2966 -52.3027 82.9124 -29.6301 1.50298 -4.05351 -5.80934 44.6057 -0.00334246 13.5131 -0.0701813 -4.20716 7.38916 1.44198 -14.3053 2.03483 5.54447 22.1889 
-136 83.5457 44.9616 -42.2239 -85.8339 -27.9195 -176.984 39.5828 84.5365 -61.0677 24.7469 0.705802 62.4621 13.0599 32.7094 37.5824 -0.684766 -7.59603 175.417 31.8293 79.0317 -40.523 -10.4708 -0.238084 48.1061 11.598 19.1504 55.1715 -7.02795 -3.1278 0.330076 11.0609 -91.3983 4.74383 0.0866269 -2.74236 -6.9301 -0.0340943 -2.74352 -29.4433 0.906517 -2.58974 -9.43062 0.906513 -2.58977 94.9287 -52.0702 -93.1615 0.313327 -28.8097 -52.568 -26.0194 -6.7783 -57.4488 5.8826 -0.316166 -10.1315 -87.8315 -51.1933 81.9343 -27.4846 -0.590388 -10.0156 -4.57774 44.3277 -0.0038558 10.3521 -0.140937 -4.82262 12.7472 1.95199 -20.1583 -1.91387 7.488 25.7256 
-141.459 83.0753 45.337 40.3888 -85.613 54.4945 179.828 43.2796 87.7951 -68.6549 23.467 2.28361 62.6657 10.4772 25.0506 41.2971 -1.36634 -6.50388 173.472 29.0466 79.0435 -39.122 -14.6758 1.02281 52.076 9.94708 18.9251 57.1971 -6.74607 1.62129 -0.0288014 11.0042 -91.2278 4.85288 -0.561704 -2.40041 -6.82009 -0.666768 -2.3734 -29.3375 0.185459 -2.45823 -9.32489 0.185452 -2.45824 95.4192 -53.4067 -92.2537 2.23153 -32.1242 -46.8595 -27.9531 -0.699271 -64.171 3.76522 -0.243737 -11.164 -88.8613 -50.6999 80.315 -24.668 -3.34134 -19.3367 -2.65291 45.5117 -0.00493359 5.85722 -0.252807 -6.68617 14.1317 0.615562 -20.63 -1.90735 6.47233 23.2501 
-146.479 82.8603 45.5019 76.9411 -85.3082 91.0093 176.763 41.9456 91.4794 -71.5853 23.5545 3.62828 62.9204 11.268 25.0997 46.3541 -2.07982 -3.08449 169.899 29.136 80.8344 -45.5413 -15.209 3.50903 58.7285 6.29737 15.386 53.9725 -5.39627 5.92198 0.0682974 11.0223 -91.0115 4.82251 -0.278591 -1.98035 -6.8499 -0.365462 -1.96619 -29.3731 0.329339 -1.97254 -9.36048 0.329344 -1.97256 95.8439 -54.2857 -91.5218 3.64361 -34.3255 -40.6279 -29.1041 1.21897 -67.2743 -5.44523 0.122258 -8.64358 -88.415 -52.2951 81.2693 -19.4247 -2.08014 -24.2967 -3.51388 37.2972 -0.00659548 8.03249 -0.207181 -5.65091 10.4029 -0.4141 -29.2036 -0.173138 7.65277 34.0617 
-150.54 83.0309 45.3857 84.4198 -85.1047 98.3615 172.687 40.755 94.5003 -71.6873 21.7247 5.16304 63.4583 11.995 24.5697 50.688 -2.43177 0.247637 168.758 30.8911 82.493 -49.8535 -14.1102 3.99714 58.1114 7.81286 19.5084 51.0719 -4.68316 7.186 0.174194 10.9299 -90.7942 5.01172 0.0208646 -1.55874 -6.66014 -0.0477448 -1.55814 -29.1884 0.488313 -1.48044 -9.17574 0.488322 -1.48043 96.2662 -54.748 -90.8504 4.56568 -34.0125 -36.0667 -27.5099 0.748031 -67.2653 -11.0899 0.0675344 -6.01847 -87.6881 -52.9308 82.4415 -16.3256 0.230157 -26.0091 2.09271 26.012 -13.1459 13.507 -0.172154 -4.98091 8.11646 -0.988064 -35.3233 1.29889 8.73894 41.0245 
-153.912 84.0846 45.7701 95.156 -84.6581 108.801 169.838 37.2527 96.5387 -69.2737 20.4176 6.77841 64.2536 12.4935 23.4851 53.3443 -2.62461 1.19879 168.261 29.29 84.3924 -49.9066 -14.5074 4.71435 59.3268 6.60885 16.875 50.4144 -4.45311 8.2489 0.162913 10.8891 -90.6457 5.09397 0.0590955 -1.26833 -6.57759 0.00321961 -1.26971 -29.1082 0.437522 -1.19196 -9.09557 0.437516 -1.19196 96.7812 -54.4984 -90.1178 6.99964 -30.9018 -32.1845 -27.8692 -3.18809 -63.8145 -9.05343 -0.0698056 -4.67013 -87.5692 -52.5334 82.5495 -16.307 0.963388 -28.0183 8.15385 26.0306 -23.3312 19.43 -0.276496 -5.28738 6.72312 -0.983059 -38.8197 2.21437 9.7434 45.7058 
-156.801 85.2884 46.1733 99.8867 -82.8371 113.571 167.747 33.6249 97.9625 -66.0941 19.3629 8.39461 65.3817 13.2052 21.7612 54.0842 -2.60438 2.09232 168.051 26.0137 86.1946 -48.188 -13.5173 5.66974 62.9251 4.0423 13.973 47.9604 -4.15214 6.79702 0.0322981 10.7816 -90.658 5.30761 -0.208207 -1.28742 -6.36395 -0.264655 -1.27701 -28.894 0.188307 -1.29049 -8.88134 0.18831 -1.29047 97.5259 -54.2377 -89.0413 9.51749 -26.5799 -28.8511 -24.2605 -7.39405 -57.5752 -6.63092 0.0122813 -5.81347 -87.196 -52.571 83.1023 -16.478 1.51514 -30.1191 16.1823 31.7797 -31.1484 20.6488 -0.451273 -6.1501 4.48722 -0.810948 -39.8362 4.08388 10.3088 47.5447 
-158.868 86.4614 46.4631 101.763 -82.14 114.76 168.199 30.2991 97.8944 -61.3912 19.2654 9.28009 65.3873 13.7534 22.5137 55.3116 -2.66137 2.58628 168.392 24.5711 86.6967 -46.8042 -11.4994 5.61712 61.5196 5.83467 16.8601 46.4608 -3.86468 6.94048 -0.0604113 10.6133 -90.6115 5.64363 -0.375902 -1.19209 -6.0278 -0.427997 -1.17441 -28.5586 -0.000280044 -1.24995 -8.54592 -0.000281573 -1.24995 98.0476 -53.8318 -88.2992 12.6219 -21.2738 -26.3126 -21.4663 -13.0471 -50.4618 -7.66216 -0.0533375 -4.67028 -87.2036 -53.4995 83.2367 -14.3211 3.20195 -30.0366 24.0472 32.9206 -40.7365 19.2252 -0.236616 -5.1358 3.63403 -0.839343 -39.4131 4.75166 10.197 47.5858 
-160.569 87.8184 46.9145 108.849 -82.6146 121.586 170.622 26.5015 98.3849 -56.1467 19.3657 9.62128 66.2095 14.7779 22.9006 54.1763 -2.53032 2.8626 169.38 22.0023 87.7706 -43.87 -10.3749 5.47575 61.4037 6.15357 17.6673 43.5984 -3.33345 7.03782 -0.0159178 10.4575 -90.5991 5.95586 -0.283445 -1.16973 -5.71557 -0.33464 -1.15612 -28.2465 0.0811802 -1.20084 -8.23384 0.0811857 -1.20083 98.1681 -53.4734 -88.1457 15.3276 -15.3464 -24.422 -17.5409 -17.8961 -42.5191 -9.37971 -0.1702 -3.22917 -86.8972 -53.2067 83.6365 -12.7336 5.58697 -29.0929 25.1381 29.3726 -45.0045 17.0114 -0.0660061 -4.22365 3.94945 -0.71446 -37.1628 4.01442 9.46387 45.3657 
-162.212 89.2851 47.467 118.227 -82.9196 130.045 172.554 23.4927 98.6701 -52.0211 19.2407 9.62671 65.6938 13.0737 19.979 55.307 -2.5131 3.85428 170.599 19.0101 88.3718 -40.4379 -9.29513 4.99614 61.6485 6.10623 17.6368 40.6982 -2.8203 6.24296 0.0220353 10.3267 -90.5598 6.21832 -0.19236 -1.09517 -5.45306 -0.240372 -1.08565 -27.9846 0.145653 -1.10235 -7.97189 0.145653 -1.10235 98.4973 -53.4275 -87.6569 17.2348 -9.44596 -23.0726 -13.1333 -20.8341 -34.369 -10.2827 -0.237463 -2.59723 -86.7825 -52.272 83.6631 -12.9938 6.64796 -28.6634 23.9083 28.1577 -44.7203 14.0242 -0.229035 -5.40507 5.48177 -0.766236 -33.6523 1.5844 7.92292 41.4302 
-163.527 90.6286 47.923 126.008 -83.2956 136.059 174.783 20.88 98.1384 -47.4391 20.3186 8.99742 64.2518 11.0239 18.1378 57.6609 -2.3988 6.02139 171.911 16.8939 88.159 -37.6189 -8.5429 3.97579 61.8458 6.026 17.2149 38.0778 -2.32181 5.57185 0.0151586 10.1517 -90.4567 6.56902 -0.163942 -0.893181 -5.10222 -0.203091 -0.885098 -27.6349 0.11206 -0.90116 -7.62227 0.112062 -0.901167 98.5106 -53.096 -87.6588 18.6491 -4.27476 -21.3149 -9.41428 -21.3297 -27.7366 -9.26037 -0.262083 -1.97907 -86.4611 -52.3875 84.1525 -12.8151 7.21863 -28.2434 20.8648 27.1159 -42.3242 9.64529 -0.367194 -6.96404 6.86401 -0.440812 -27.8619 -0.794361 6.28077 34.8007 
-164.594 91.7464 48.4409 135.453 -84.0119 144.598 177.102 18.5677 98.4616 -43.3117 21.068 8.38371 64.1441 9.97993 15.7784 59.5759 -1.99903 9.35519 173.351 14.9751 88.7637 -34.5489 -8.54607 2.91709 61.0419 6.27265 16.5389 37.0382 -2.1017 4.32329 0.0480385 9.95529 -90.4082 6.9623 -0.0790738 -0.801167 -4.70889 -0.114243 -0.796923 -27.2421 0.16536 -0.787898 -7.22946 0.165368 -0.787898 98.3711 -52.8609 -87.8842 18.9711 -1.23809 -19.7325 -5.17217 -18.4619 -21.7328 -8.09376 -0.215377 -2.21443 -86.3132 -52.3226 84.3607 -13.0554 7.02306 -27.0355 17.3575 25.8468 -39.0884 5.83259 -0.416203 -8.90815 8.86175 -0.05366 -23.4952 -4.66386 4.95112 29.6603 
-165.555 92.7157 48.9983 149.551 -85.0992 157.319 179.289 16.3767 98.3289 -38.6648 20.5808 7.47523 63.5742 8.56896 13.306 59.0023 -1.98395 9.34949 174.576 13.6332 88.7372 -31.8133 -8.31205 1.63844 60.594 6.6833 17.2883 35.482 -1.75664 3.52205 0.0148862 9.70789 -90.2933 7.45741 -0.0972356 -0.573424 -4.21366 -0.122378 -0.568585 -26.7478 0.0795898 -0.576134 -6.73515 0.0795916 -0.576139 98.014 -52.2894 -88.4648 18.3985 -1.0866 -18.3901 -1.75874 -15.5431 -16.7521 -7.80274 -0.210056 -2.18347 -85.4844 -53.0027 85.6691 -12.8588 7.03095 -25.2527 15.0976 25.5686 -36.6244 3.12267 -0.31785 -9.10692 10.0806 1.09222 -17.69 -7.49692 4.43048 22.4319 
